P2
# maudy4_new.pgm
27 255
255
   28   28   28   28   28   28   28   27   28   28   26   26   29   25   29   22   26   24   24   18   10   14    4    1    7    7    5    2    5    5    4    3    3    3    3    2    4   24   14   10   11    1   10    5    5    5    5    8    4    1    1    3    3    3    5    7    3    5    1    7   10    3    1    1    4    1    2    3    3    4    2    1    2    5    8    8    6    5    5    7   14   13   38   16   19   26   18   13   17   13   23   14   32   29   11   48   23   36   28   32   24   26   37   52   32   64   88   60   48   45   74   42   51   34   38   35   56   67   46   97  116   61   76  122   90   81   87   51   23   59   64   65   74   28   59   86   92   76   93   74   57   70   66   50   68   78  102  114  115   90  126  152  122  160  135  155  164  157  179  179  158  138  131  116  133  128  123  118  124  136  149  145  157  154  151  154  146  131  143  153  136  113   85   91   74   73   55   45   48   32   96   46  104  139   54   84   64   99   87   62   81   59   64   36   52   22   31   70   22   26   15    5   35    7   26   42   18   31   13   10   23    7    4    9    2    1    2   12    8    2    2    2    2    2    2    2    2    2    4    2   20   35   47   40   41   45   46   46   46   46   46   27   28   28   28
   28   28   28   28   28   26   28   28   25   24   35   23   32   16   27   22   26   20    9    4    0    0    6    5    8    0    4    8    7    0    1    0    0    0   15   73    0   24    0    4    6    0    3    1    2    0    0    0    1    3    7    6    6    4    0    1    8   13    2    0    1    4    6    1    2    1    1    0    3    1    3   14   13    3    0    0    0   15   34   53   11    4    5   22    9    2    0   30   20   52   22   17   54   11   37   45   36   24    8   57   41   57  142   86   69    0   64   45   25   14   25   43   60  104   43   53  107   50   46  110   69   27  205   82   49   57   76   43   73   42   27    4   88  102   91   98   87   69   76   86   75  102   83   90   89   93  157  186  143  153  150  149  168  150  140  147  136  113  109  120   75  163  172  158  155  165  164  134  159  138  128  139  112  131  160  165  148  140  142  146  120  129   64   68   78   64   61   97   63  154   70  150  160   48   54   63  128  124   55  107   70   73   36   28   32   25   77    0    6    1    9   37    0    5   32   22   40   16   37   21    0    0    0    0    0   12    7    0    0    3    3    4    2    0    0    0    0    0   20   40   57   41   40   45   47   47   51   50   55   17   22   22   26   26   27
   27   26   26   26   29   29   25   25   30   26   32   15   23   25   25   23    9    0    0    1    0    4    7    0    3    4    3    0    0    0    2    0   37   36   16   21    0   10    0    3    0    0    1    1    3    5    3    8   13    1    1    3    9    4   14    6    0    3    6    6    3    0    1    0    1    0    0    7    7    8    6    0    0    0   17   62   40    7   12    5   14    3    0   40   55   23   28    9    2   18   30   27   31   33   29   48   21   39   67  108   52   25   21   32   61   40   39   42   45  114   48   62   90   37    0   81   57   64   96  152   83   28   63    4    2   54   31   11   54   99  120  125  103   76   87   75   89  107   66  116  105  149  153  155  143  168  148  146  155  170  156  150  151  186  175  184  113  137  136  163  139  151  156  151  145  140  154  178  190  195  150  154  159  185  166  170  163  125  136   78  117   67   58   61   62   54   45   69   42   71  127  159   65   67   35   81   88   52   74   64   19   25   31    0   60   32    6   12    0   17   16   17   19   46   37   16   16    6    8    2    1    2    2    0    0    1    0    5    0   10    0    0    0    0    0    0   16   40   44   43   43   45   47   47   51   50   55   15   22   22   27   27   27   26   27
   27   27   29   29   25   23   27   29   30   16   20   29   22   24    5    0    0    6    0    5    3    1    1    1    1    1    0    1    0    4   14   19   16    5    0    2    1    6    0    0    0    4    4    4    2    4    2    0    4   10    4    2    7    4    2    1    2    3    2    0    2    2    0    0    8   20   15    1    0    3    7   20   57   14    4   20    5    2    0   10   51   41    1    1    2   17   37   55   15   14   54   15   24   35   86   71   32   31    9   38   47   70   48   19   40   61   74   42   61   59   13   79  116   85  140  192  104   53   26   11    0    6   74   58   42   82  142  133  125   74   81  103   85  111   82   58  132  129  116  122  119  124  173  154  140  158  149  138  180  200  193  153  116  142  104  128  115  126  127  154  150  161  170  177  157  162  148  175  150  152  151  188  198  186  145  132  141  148  134   58   77   72   89   77   66   48   66   84   91  142  162   84    8   19  123   95   52   56   56    9   50   32   24   40   36    0    7    8   32   34   12   19   41   13   17   11    6    1    1    0    1    1    0    0    0   12    0   10    0    0    0    0    3    0    6   25   46   44   42   47   49   47   51   50   55   17   22   22   27   27   27   26   26   26   28
   28   27   25   26   26   26   28   17   16   25   20   21    1    0    0    9    4    5    2    1    1    1    2    1    1    0    0    3    5   41    4    1    0    0    1    5    0    0    0    1    1    0    0    0    0    7   10    5    1   11    0    0    4    2    3    3    3    0    0    2   10   19   17   11    0    0    8    7   25   52   25    5   29    0    3   12    9   24   13    0    0   18   30   67   39   14   17   22   32   14   59   79   64    8   32   25   57   60   31   17    0   33   57   66   63   21    0   58  143   74  128  108  123   61   22    2    0   18   42   60   80   51   86  116  140  132   89  113  126   76  100   81   65  160  119  109  130  139  158  159  159  155  212  166  147  208  164  151  157  139  145  165  158  188  191  197  171  196  184  188  170  175  164  172  161  177  159  176  179  163  166  154  154  131  139  128  175  130   42   70   93   90   58   57   55   55  139   69  148  154   77   49   22  113  153   61   36   48   19   24   38    8   25   15   14    3   13   33    8    7   44   29   18   12    7    4    0    0    1    2    0    0    2   19    5    4    0    0    0    0    0    0    0    4   58   44   42   46   49   46   51   50   55   17   22   22   27   27   27   26   27   26   31   28   26
   26   28   26   22   26   17   16   26   20   20    2    0    0   10    4    5    2    1    1    1    2    1    0    0    1    1   34   32    0    2    0    1    0    6    0    0    0    5    4    5    5    5    7    9    3    0   12   10    0    0    0    3    4    0    1    0    0    5   18    8    0    0    6   21    5   15   29   18   15    0    6   19   40    3    9    3    2   35   35   25   74   54   13    9   14   34   35   75   94   23    5   12   31   69   49   48    0    3   36  106  110   66    0   49   67   66  165  137  176   84   18    0    1   20   51   67   64   72   86   78   94   95  164  126  143   76   83   76   89   91  129  125  121  188  158  166  160  202  174  180  172  170  210  145  131  157  143  117  121  126  134  153  157  164  159  193  189  192  174  184  175  183  175  166  165  192  175  168  182  171  200  167  151  167  125  119   67   72   90  105  107   57   74   72   63   88  101  128  162   44   54   25   55  131   53   19   36   14   25   12   28   35   16   37    6   19   11   23   19   43   18   11    8   16    0    0    0    2    1    1    0   15    6    1    0    0    0    0    1    0    0    0   57   40   44   45   50   47   51   50   55   17   22   22   27   27   27   26   27   26   30   26   24   26   28
   24   21   26   17   21   29   21   24    4    0    0    8    3    5    2    1    1    2    1    0    0    0    3   11   34    2    1    1    1    1    0    4    0    0    0    7    6    7    6    6    2    0    1    4    6    0    3    0    0    4    1    1    0    0   16   18    3    0    9   20   17    6    8   22   32   15    2   13    4   15   20   11   10    8   25   12   13   68   41    0    1   13   43  104   43   25    0   26   29   35   94   52   20    0   16   47  128  135   10   25   78   43   80  155  141  155   44    0    6    0   22   54   55   57   69   68   67   86  146  156  157  107  113   88   95   98  108  145  164  155  163  163  161  200  178  170  182  215  195  170  184  147  128  124  192  195  187  196  218  214  204  204  183  182  187  196  170  183  181  190  197  194  181  177  182  183  172  164  162  147  137   97  159  148   93   97   60  106  108  113   92   92   87   96   95  137   90  148   71   12   40   48   69   65   10   31   24   45   29   22    8    3    0    8    4   16    0   12   27   13    9   19    0    0    0    2    2    6    0    6    4    3    0    0    0    0    4    0    2    0   50   39   46   44   50   47   51   50   55   17   22   22   27   27   27   26   27   26   28   24   32   32   25   28   22
   17   22   26   13   25   18    0    0    3    4    1    0    0    1    3    2    0    0    0    5    9   13   11    2    5    0    0    0    0    1    2    5    6    7    6    6    6    4    0    0    2    7    3    2    3    2    4    0    0    7    0   14   14    0   23   22   13    4    0    0    8   26   25    8    7    0    3    0   14    6   37   49   25   11   47   11    2    0   33   91  110   38    5   11   29   17   56   71   30    1    7   31  100  154   87    2   24   60   59  100  116  112   91    0    0    6    0   59   88   66   62   50   71   93  144  137  126   95  165  135  112   85  107  128  109  124  140  150  130  130  173  194  171  208  210  180  170  174  154  171  194  204  196  162  192  198  205  200  192  200  195  185  199  200  194  189  184  185  187  196  190  181  182  180  179  174  172  180  177  162  159  150  147  128   74   57  111  123   92   77  104   88   89   70   81  114   81   52    9   35  103   92   50   38   19   41   14   16   18    7    8   14   11    8   17   17   36   11   11    8    0    2    0    0    2    0    0    3    5    0    0    2    2    3    0    0    0    4   26   48   41   43   51   47   51   50   55   17   22   22   27   27   27   27   27   27   29   26   28   28   29   36   19   11   20
   18   20   30   12    0    0    2    4    3    0    0    2    2    2    0    0    0    3    4   15    0    5    3    1    0    0    3    3    3    5    5    4    4    4    4    2    2    2    2    7    2    3    2    3    0    0    1   10   14    7    0   32   37    7    0    0    4   14   24   16   13   12    0    5    4    0   36   53   24   14   10   11   12    4   19   70  129   59    0    0    0    0    0   54   79   16    0   28   21   83  103    7   29   49   37  124   93   93  122   10    0    0   36   10   74   89   56   28   41   88  113  147  138  113  125  137  155   91  117  117  136  119  153  156  161  161  169  205  232  217  202  207  172  200  181  168  171  170  182  160  175  187  206  203  205  203  200  194  185  189  190  207  201  192  190  188  188  193  195  196  194  192  186  182  182  174  180  187  169  170  144  135  111   90   77  126  118   84   91  126   84  108   91   45   83   75   52   30   44   91   62   40   40   38   29    9   17   32    2    5    7    0   21    0   24   11   17    6    0   21    7    0    0    0    0    1    4    4    2    0    0    2    0    0    0    2   18   48   40   46   48   48   51   50   55   15   22   22   27   27   27   27   27   28   25   27   26   24   33   35   18   18   16   15   19
   19    4    0    0    1    2    5    1    2    0    0    0    0    0    0    2   29   27    0    3    1    0    0    2    4    5    5    3    2    2    2    2    2    2    0    2    4    5    2    3    1    1    0    0    0    0    7   10   23   26    0    0    0    7   13   19   14   15   10    0    3    0    0   47   57   17   21   18   16   11   15   12  110   91    0    0    3    0   31   37   93   47    0   30   45   49   74   57   48   71   12   83   93   37  104  116   10    0   10   12   54   24   68   16   38   42  107  151  125   87   68  161  143  144  121  132  133  141  136  134  169  154  165  172  202  216  178  159  183  178  204  175  164  187  205  209  204  172  188  192  201  200  203  197  194  200  192  204  197  187  190  198  203  207  203  198  195  198  192  189  184  181  180  192  189  172  176  162  141  131  136  152   97  108  113  120   93  132   67   76   69   56   45   73   59   44   35   52   96   89   18   28   22   11    0   22   28   19    7   10   25    0   12    1   26   13   11   16    4    0    1    1    0    0    2   13    6    0    0    0    0    1    0    0    7   43   43   41   47   48   51   50   55   15   22   22   27   27   27   27   27   28   25   28   22   23   31   27   25   29   15   20   22   16    6
    4    0    0    1    5    3    2    0    0    0    0    0    0    4   34   13    0    0    0    2    1    3    7    7    5    2    1    3    3    3    3    1    1    5    7    5    2    1    0    0    0    7    7   10   27   23   22    5    0    8    1    3   18   34    0    5    4    0    0   23   50   52    0   23   42    0   11    0   41  122   49    0   64   43   29   32   49   58   53    0   33   67   42  103   59   52   12    0   97   68   23  185   67    0    0    0   14   45   34   30   32   57   73  100  148   93   85   69  149  142  139  106  116  116  149  154  138  160  153  182  194  186  195  194  183  196  182  184  186  160  228  204  180  208  179  180  202  211  204  199  196  193  191  189  191  198  197  196  199  204  204  204  207  206  202  198  189  189  190  190  185  188  181  173  176  189  176  153  135  111  120  101  120  130  144  181  110  124   61   92   68   42   54   56   73   66   21   82   28   31   49   17    8   14   33   42    6   10   10   13    0    0   26   10   10    0    6    5    1    0    2    0    1   24    7    0    0    0    0    0    0    0    0   42   45   40   49   48   52   51   55   17   22   22   27   27   27   27   27   27   23   25   24   26   26   21   19   37   20   24   21   12    2    2    3
    2    1    3    3    2    0    0    1    0    2    6   11   14    3    3    0    0    1    1    3    2    2    2    2    3    1    1    1    1    1    3    3    0    0    0    0    0    6    8   12   16   37   10    2    1    0    3    0   13   30   19    0    0    0    0    6   20   16   15    0    0    0   23    0    2   71  111   31    0    0    0    3   26   55   80    3    0   45   95   59   64   92   23   18   39   91   23   93  145   13    0    0    0    9   38   46   38   46   80   84  104  148   87  111  134  156  157  137  139  107  144  143  155  140  187  147  166  184  180  192  199  188  187  198  174  176  211  218  181  170  208  186  181  204  198  181  186  198  204  198  194  201  207  208  208  198  202  206  208  206  202  203  201  198  191  192  190  194  198  188  186  199  195  189  185  170  144  148  136  112  112   92  131  134  147  122   60   73   88   40   47   74   77   39   43   33   42   26   31   18   18    1   15   36    0    8    0   17    3    4    9   12   10    4   17    2    0    1    2    2    4    9    2    0    0    0    0    0    0    0   23   32   42   46   44   42   55   49   51   17   22   22   27   27   27   27   27   27   25   26   25   28   26   23   13   36   29   20    8    1    3    4    0    0    2
    2    3    2    0    0    0    0    5    8   10    6    5    3    1    2    3    3    3    3    5    4    5    2    0    1    1    1    1    3    2    0    2    6    4    1    3    9   10   11    4    1   14    1    0   10   24   26   14    5    0    1    2   27   24   16    3   12    2    5   12   23   19   81   75   29    0    0    2   24   15   51   34   24   71   86   74   61   59   33   11   30   81   92   41   95   96    0    0    0    0   37   50   30   46   79   56   84   84   84   85   58   79  105  141  136  116  119  145  164  148  181  174  158  176  193  218  214  218  214  198  192  187  202  224  204  186  221  224  191  199  206  215  226  228  229  225  227  222  218  203  206  210  213  203  207  207  206  203  199  202  203  199  200  198  196  201  198  187  185  190  188  187  183  172  149  131  140  125  101  122  105  101  156  161   72   66   77   81   49   39   55   31   46   27   37   47   23   31   34   13   13   22   35    0    3   15   19    9    3   13    7    9   12    9    4    1    4    4    5    4    4    0    0    0    3    0    0    0   25   18   42   49   41   42   55   50   50   15   22   23   27   26   26   25   25   25   25   26   25   28   26   28   11   34   34   32    7    0    8    8    1    0    1    2    2
    2    1    1    0    1    7    9   10    1    1    1    2    2    2    2    2    2    5    5    3    1    5    5    5    5    3    0    3    4    6    3    3    4    5    4    8    5    0   34   13    4    6   17   22   13    0    0    1    2    7   12    9   13    5   19    6   21   15   15   75   36    9    0    0   19   11    0   43   38   20   95   83   52   58   70   60    3   25   42   49   61   83   26    0    8    1   25   23   54   31   40   67   68  100  104   68  112   88   71  100  129  153  152  109  149  150  154  164  161  157  182  181  214  208  201  194  188  185  180  190  221  213  199  218  187  167  201  215  221  218  213  213  222  211  204  205  209  201  208  212  218  211  210  207  207  205  204  208  207  205  202  198  195  198  196  191  186  186  186  188  182  183  166  149  161  153  144  152  127  108  103  131  138   70   53   74   43   43   47   46   53   33   46   25   35   29   31   21    5   11   42    7    0    6   21   10    6    3    3    7    3   14    3    0    2    0    2    1   10    2    0    0    7    0    2    0   14    0   40   49   39   40   53   50   53   16   23   23   28   26   24   24   24   24   26   26   26   27   25   29   16   30   30   37    4    1    8    4    1    0    1    2    0    0    2
    3    0    3    9    9    4    0    2    1    5    3    3    2    2    2    9    5    1    1    1    1    0    0    1    4    4    3    5    0    3    8   12    0   12    0   21   39    3    6   13   10    1    0    5    6    7   18   26    5   12   20   14   23    9    8   32   86   57   14    0    1   20    0   15   58   21   36  101   58   43   52   25    8    0   45   83   63  111   81    0    0    0    6   26   10   46    3   14   47   51  151   91   62   63   88   49  120  150  138  170  121  147  167  153  154  183  170  203  205  188  181  198  187  185  193  206  206  220  204  188  213  192  200  220  220  217  230  220  220  218  221  212  208  210  216  210  213  212  213  208  208  207  208  207  208  210  209  206  198  194  192  196  197  199  195  187  196  194  184  186  180  163  138  143  163  125  121  147  102  104  169  116   74   49   66   55   43   43   43   52   23   26   25   42   36   13    9    5   12   33    1    0    4   11    4    0    1    8   10   11    0    0    0    0    1    0   18    4    0    3    6    0    4    0    8    0   32   45   41   39   51   50   54   15   22   22   27   25   23   24   24   24   26   26   26   27   23   29   23   25   18   10    0    4    8    4    2    0    1    1    0    0    0    2    3
    5   11    5    0    0    1    3    5    2    3    3    3    3    9    4    0    0    0    0    0    1    2    6    5    2    0    5   11   12    3    0    7    0   46    6    5   15   12    0   13   13    7   14   24    0    0    5    7    9    3   11    0   10   59   57   16    0    0    1   11    8   61   20   56   78   47   25   27   31   26    7   36   84   10   59    2    0   32   45   59   82   67   54   26   60   85   72  113   81   64   74   66   96   63  138  133  170  131   95  173  145  179  182  190  169  224  166  177  200  201  214  203  205  220  219  194  183  199  180  203  219  220  218  208  218  218  215  204  214  215  216  218  219  211  210  207  206  202  204  207  210  210  209  210  208  205  202  199  199  203  202  207  201  193  205  194  187  185  184  178  155  157  166  147  152  109  108  101   58  120   70   55   68   71   60   65   57   36   39   27   38   41   50   22   13   11   13   18   37    0    0   11    5    0    7   24   32   17    7    3    0    0    0    0   20    5    0    4    1    0    3    0    7    0   23   42   47   40   52   52   55   18   25   24   29   27   25   26   26   26   26   26   26   26   25   26   25   27   16    0    4    7    0    0    0    1    1    0    0    0    2    5    5   15    8
    2    0    4    3    2    1    1    1    2    5    3    0    0    2    3    2    3    5    6    6    3    0    5   13    9   10    6    0    4    0   17   26    4   12    5    0   15   11   23   38   16    0    0   22   11   16   22    6   13   13   48   44    0    8    7    0   10    4   24   50   85  110   20    7   38   29   34   46   63   23   45   41    0    0    8    4   15   36   24   12   11   14   59   64   76   63   35   75   60   83  101  103  128  126  132  113  174  190  182  182  183  179  201  186  174  205  217  216  196  197  221  219  205  198  211  195  204  220  217  222  215  206  216  218  221  216  217  219  220  218  212  210  212  210  209  216  217  216  214  215  213  211  208  206  207  206  207  207  205  202  198  200  204  197  194  195  189  174  165  158  154  150  135  123  119  106   96  111  111   92   69   61   52   51   56   34   37   22   39   28   33   26   16   10    0   17   44   18    0    0   16    2    1   15   12    7    6    7    2    0    0    2   15   27    3    0    0    2    1    0    0    0   15   45   50   43   48   53   50   18   23   22   27   25   25   25   25   26   26   26   26   26   23   26   34   31    5    0   26   12    0    0    2    2    1    0    2    0    0    2    9    9    0    0    4
    4    3    1    1    1    1    3    5    2    0    0    2    4    6    6    4    1    0    2    6    9    9    8    3    0    4   10    6   26    0    9   19    0   10    7   16   21    3    0   14   13   10   10   10    0    4   26   29   33   30   22    5    2   45   34   38   88  111   48    0    0   42   44   40   37   37   32   51   16    0   15   12   23   30   27   33   29   26   14   46   75   87   68   43   51   65   78  107  113  121  129  157  159  175  182  152  149  149  199  173  168  183  194  208  218  203  199  210  209  195  190  206  216  203  213  219  221  221  214  209  223  225  224  221  220  220  220  218  216  215  215  213  215  215  215  214  211  212  209  208  205  204  207  205  206  205  206  204  202  201  204  200  194  199  193  188  175  164  171  174  161  149  124  112  105   77   82   86   66   56   48   40   55   50   48   26   31   30   26   24   35   23    5    0   31   31   10    0   10    1    7    1   10    7    9   13    6    0    0    2   11   39    0    0    0    1    0    0    0    0   15   40   49   40   46   59   50   18   21   22   25   25   25   25   26   26   26   26   26   26   23   27   33   27    0    0   17    1    0    1    0    4    2    0    5    0    2    8   27   18    1    0    0    5    3
    2    1    1    1    3    4    2    2    2    4    7    6    5    2    0    2    7   10    9    6    6    1    0    6    1   22    2   14    6   10   11   20   23    5    0    3   15    6    3    7    9    0    8   26   33   40   34   23    0    0   13   35   28   64   78   45    0   24   88   39   37   44   28   53   61    8    0    0    0    7   17   21   30   24   13   29   19   67   71   67   52   55   44   66  103  102   99   92  128  133  120  150  141  138  179  180  201  172  193  199  216  213  201  196  203  205  191  187  217  207  198  218  214  209  217  221  223  226  228  229  227  222  223  219  217  217  218  218  218  216  217  214  214  212  211  211  210  210  207  206  207  206  207  205  206  205  202  201  204  199  197  201  194  188  174  165  171  173  160  152  137  125  104  116   83   77  107   82   60   41   49   55   57   39   25   31   24   29   40   34   16    0   14   30   25    3    6    0   11    0    5   16   15   12    8    0    0    1    6   34    0    0    0    1    0    0    0    2   20   33   50   47   44   59   53   16   18   20   24   24   26   25   26   25   27   27   25   27   28   31   25   23    0   30    8    0    3    0    0    5    3    5    0    0    0   16   19    5    2    4    0    5    3    1    2
    2    1    4    5    4    4    4    6    8    1    1    3    5   11   16    5    3    3    2    4    4    2    8   15    0   22    0    5   18   33    3    5    6    8    0    0    7    9   10   19   29   36   35   33    1    0   33   32   16   82   74   61   14    0   43   56    0   32   55    0   73   34    0    2    0   31    0    9   38   41   23   24   10   45   56   98   55   55   62   56   61   87  111   88  108  123  170  182  177  189  173  172  196  179  207  197  217  209  214  216  210  189  184  205  210  209  223  195  210  216  220  226  226  228  231  232  229  230  225  220  219  213  213  213  218  218  216  215  215  212  213  211  210  211  213  213  210  210  207  206  206  204  204  201  198  199  202  198  196  200  194  187  178  175  173  166  167  164  151  141  114   92   81   64   77   93   74   61   53   39   58   52   28   26   28   35   33   36   27    5    0   19   34   18    6    1   15    0    4   31   21   12    9    0    0    0    0   13    1    1    0    1    0    0    0   18   28   25   49   52   39   51   54   18   18   20   25   25   25   23   25   23   32   23   22   25   27   34   25   10   11   61    0    0    0    0    0    0    8   16    4    4    3   79   12    4    0    0    0    3    2    1    1    1    2
    3    3    0    0    4    8    7    1    1    0    7    9    0    0   11    0   11    5    2    5   22   19    3    8   14   26    6    6    4    7    2    0    0    0    0   25   41    0    5   42   20    3   21   26   11    4   86   67    0    1    0   32   19   25   72    0   15   91   20    0    0    0    5    0    7   45   35   29   19   19   51   84   76   64   51   51   49   52  110  112  106   98  161  164  176  159  167  170  191  187  203  206  216  199  200  212  225  196  175  180  197  211  215  211  205  230  215  211  219  218  220  218  219  219  226  226  216  217  218  219  219  218  219  215  219  219  215  217  216  217  216  215  215  214  213  213  210  203  200  201  208  207  203  200  199  198  196  195  190  186  183  184  180  181  176  163  162  150  136  119   88   93  109   94   71   76   44   30   45   69   67   17   31   23   44   30   30   13   13    1   19   21    4   13    1    3    0   15   24    0    7   11    0    0    4    1    0    6    0    0    0    0    0    1   18   28   36   59   45   48   60   18   21   21   26   25   25   23   25   23   35   22   25   27   24   30   12    0   44    8    0    5    0    0    0    0    7    3    8    0   43   39    0    2    0    1    0    3    3    3    3    3    3    3    3
    2    2    7    6    4    0    2    6    6    0    9   11    0   13   10    1    1    3    9    7    8   14   18   11    0    2    4    4    0    0    5    9   26   28   30   36   48    8    0    7   21   11   20   65   52   15   20   12   18   47   68   42    0   49   74    0    0    5    0    3    0   14   31   29   21   18   19   42   62   64   45   32   48   48   61   99   90  105  118  149  148  151  170  156  162  173  191  184  197  187  190  196  194  196  195  185  191  210  221  221  223  221  218  217  211  222  222  222  221  222  221  223  227  226  218  218  221  220  220  219  218  214  219  216  215  217  217  216  214  215  214  213  212  213  206  204  202  204  205  204  201  197  196  195  192  198  192  187  185  183  180  180  171  164  163  162  157  106  119  125   84   81   89   69   72   45   43   49  100   38   20   30   26   19   31   16   15    0   15   28   31    4   11    6    2    6   20    1   15   10    0    0    0    6    8    4    0    0    0    0    0    0   18   34   31   60   48   49   58   17   22   20   26   24   24   22   24   22   40   23   26   28   29   18    2   16   28    0    4    0    0    2    0    0    1    0   24    0   71    1    0    0    0    2    2    3    3    3    3    3    3    2    2    2    5
    6    5    0    0    5    9    3    4   11    3    9   15    0    0    0    5    9    9   12    9    4    0    0    0    5    3    0    6   13   20   25   16   38   42    0    0    0   21   28   44   71   36    6   21    9    1   32   48    7    0   86   25    0    0    0    0   11    4   13   41   33   18   19   30   51   56   57   52   47   48   61   64   83  108   89  115  138  139  157  173  194  186  181  190  184  184  185  184  195  201  198  210  212  206  204  210  214  216  215  215  218  212  220  225  219  218  219  221  220  222  222  224  216  218  221  220  220  219  217  218  217  214  215  217  218  216  215  215  214  213  211  213  208  208  205  206  203  201  198  197  195  193  194  201  199  192  189  188  184  185  184  174  170  161  155  156  118  100  131   87   67   79   70   66   38   43   37   75   60   17   22   28   28   28   19    4   11    9   30   16    0    2    6    0   11    8   15    9    0    0    0    7   11    3    0    0    0    0    0    0   18   38   26   55   50   48   54   15   22   21   26   24   25   21   24   22   46   25   25   28   32   12    1   30    5    3    3    0    5    0    0    1    1    6   25    3   39    0    1    0    0    3    3    3    3    3    3    3    3    3    2    2    6    7    4
    2    4    2    3    4   10    4    3   14    4    0    0    1   13   18   11    5    0    0    1    8    4    6    8   11   11   12   19    6   38   31    8    0   14   22   17   42   52   11    0   13   13    4   31   16    0   57  145    7    6    3    0    3    7   24   30   34   20    8   21   30   43   50   32   33   37   49   57   83   74  101  105  129  154  162  161  200  175  190  173  166  185  172  196  201  212  217  212  209  217  212  213  215  214  214  213  210  211  213  221  226  218  214  218  219  222  221  224  219  223  216  219  221  220  220  219  219  220  214  213  215  217  218  216  214  213  214  213  211  213  208  210  209  204  201  200  199  199  199  197  195  205  202  195  193  192  187  187  191  180  172  159  149  159  153  125  101  110   95   64   62   65   72   52   57   44   53   49   13   28   27   37   22   17    5    0   15   34    0    2    2    3    7   11   12   11    9    7    0    3    6    7    0    0    0    0    0    0   11   37   31   50   52   49   51   15   20   19   24   24   25   21   24   19   50   27   26   29   31   16    0   19    8    0    0    0    5    0    1    6    6    5   13   19   14    0    0    0    0    1    2    2    2    3    3    3    3    1    0    1    4    6    6    2    5
    2    1    8    9    6   11    0    0    0    0    7   18   15    3    0    0    2   11   13    8    7   15   16   13   16    7   23   62    0    0   14    8    9   43   47   13    8   19   26   10   20    4    0   56   81    0    0    0    0    3    1   23   31   28   18   10   27   26   39   33   28   36   57   58   60   69  103   75  112  117  166  169  142  169  168  179  193  172  178  205  184  202  193  207  217  220  206  197  210  218  220  216  218  217  215  217  220  222  224  214  220  222  220  222  221  220  216  220  216  222  222  221  219  217  219  219  214  212  213  218  218  216  215  215  214  213  212  213  208  210  208  203  200  201  202  202  202  200  198  203  200  198  195  190  187  187  183  177  174  165  152  155  160  145  118  110  113   91   69   71   63   62   49   40   51   43   44   26   21   39   29   23    0   12   12   35   15    0    0   12    6    7    8    9   14   10    0    0    3   10    0    0    0    0    0    0    7   42   38   47   55   48   50   15   20   20   25   25   25   25   21   16   50   31   31   29   24    9    0    0    0    3    0    0    1    0    4    3    0    2    6   14   32    5    2    3    5   10   16   10    7    5    3    5    3    0    0    2   15    7    2    1    0    1    5
    4    4    2    0    5    0    0    8   10    7    1    0    0    1   16    8    5   12   16   12    1    5    5   27   31    0    0   17   13   15   30   31   12   28    7   36    0   18   24   16  137   41    5    0    0    0    5   11   24   30   21   17   15   13   23   50   41   28   33   41   70   59   86   75   90  110  115  109  170  168  172  194  152  186  190  184  178  175  193  206  208  215  204  204  207  214  214  214  216  216  213  212  217  219  220  217  216  216  221  220  221  220  219  220  221  221  225  226  223  222  218  215  215  219  218  216  217  218  218  216  215  213  214  213  211  213  212  210  206  203  200  203  206  208  203  203  197  204  201  199  196  192  192  193  194  187  177  170  169  163  152  153  150  118   98  111   85   69   61   66   61   55   44   35   47   35   22   25   33   35    8    4    6   17   18    6    9   13   14    0    5    4   17    9    0    1    2    7    9    4    0    0    0    0    2   46   26   39   51   43   51   15   21   21   26   25   25   17   20   27   46   30   30   28   20    4    0    0    0    4    0    0    2    2    5    6    0    5   12   12   30    7    0    0    4    5    2    0    0    0    0    2    4    2    0    2   13    3    0    0    1    6    9    7    4
    2    2    3    3    5    7    7    3    4    5    6    8   10    8    5    8    8    5   14   10   28   27    7    7   16   18   16   22   21   14   14   20   21    4   21   13   60   53    8    8    2    3    3    4   12   19   22   17   12   17   26   31   34   31   30   47   46   66   65   87   74  106  108  109  133  159  167  160  179  163  184  176  174  185  185  192  201  202  199  203  209  209  210  212  213  213  214  215  214  214  214  214  214  215  215  217  220  219  219  219  219  219  219  220  220  220  222  222  220  219  218  219  218  217  217  217  217  216  215  214  214  213  212  212  211  209  207  205  203  204  205  205  203  202  199  202  200  198  196  194  192  192  190  186  180  177  171  166  157  149  145  143  116  103   94   84   64   62   67   60   48   50   39   39   32   31   19   38   19   15    9   12   17   17    5    7    8    0    8    8   11   16    6    3    2    2    4    2    1    1    2    4   11   31   27   38   43   40   43   25   25   25   25   24   24   22   24   27   33   26   25   22   15    6    1    1    0    2    1    1    3    3    6    6    4    8    5   10   22   10    6    3    2    3    2    1    1    2    2    3    4    4    4    4    5    3    3    3    5    5    6    4    2    2    2
