P2
# maudy3_new_par.pgm
16 255
255
   16   16   16   16   16   17   17   17   17   17   17   17   17   18   19   19   19   19   19   19   19   19   19   19   19   19   18   18   18   18   18   18   18   18   18   18   19   19   19   19   20   20   20   20   20   20   20   20   20   20   20   20   20   20   20   20   20   20   20   20   20   20   20   20   20   20   20   20   20   20   20   20   20   20   20   20   21   21   21   21   20   20   20   20   20   20   20   20   20   20   20   20   20   20   21   21   21   21   21   21   21   21   22   22   22   22   22   22   22   22   22   22   22   22   22   22   22   22   22   22   22   22   22   22   22   22   22   22   22   22   22   22   22   22   22   22   22   22   23   23   23   23   24   24   24   24   23   23   23   23   23   24   24   24   24   24   24   24   24   24   24   24   24   24   24   24   24   24   24   24   24   25   26   26   26   26   26   26   26   26   26   26   26   26   26   26   26   26   26   26   26   26   26   26   26   26   26   26   26   26   27   27   27   27   27   27   27   27   27   28   28   28   28   28   28   28   28   28   28   28   28   28   28   28   28   28   28   28   28   28   28   28   28   28   28   28   28   28   28   28   29   29   29   29   29   29   29   29   29   30   30   30   30   30   30
   30   28   28   28   27   27   26   28   28   28   28   26   25   25   25   24   24   24   24   24   24   24   24   24   24   24   24   24   25   25   27   27   27   27   27   26   26   26   26   26   26   25   25   25   25   25   26   26   26   26   26   26   28   28   27   27   29   29   29   29   26   26   26   26   26   26   24   24   22   20   36   31   59   40   44   49   49   39   37   45   49   49   45   33    9   17   19    7    0    0    0    0    0    0    0    0    0    0    0    0    0    0    0    0    0    0    0    0    0    0    0    0    0    0    0    0    0    0    0    0    0    0    0    0    0    0    0    9    0    0   15   19    5    0    0   37  123  100   68   78   56   76   30   50   36   98   26   10   16   22   80    8   18    0    0    4    2    0    4    0    0    0    0    0   18    0    0   29   23   43   37    1    0    0    4    4    0    0   34   38   50   50   64   66   60   54   54   42   80   56   66   68   58   60   62   62   64   68   66   65   67   67   67   67   67   67   67   65   65   67   69   68   66   66   66   66   66   68   68   70   70   70   70   70   70   70   70   70   70   70   70   70   70   70   72   72   72   72   72   71   71   71   71   71   71   71   70   68   68   68   68   68   70   70   49
   49   66   66   66   70   72   71   71   69   69   73   73   74   74   74   76   76   76   75   77   77   77   77   77   77   77   77   75   75   74   74   74   74   74   74   74   74   74   74   74   74   74   78   80   76   74   74   74   74   74   74   74   74   74   74   75   75   75   75   73   73   74   74   74   74   74   74   74   74   72   74   69    2    0    1    0    1    1    1    3    2    2    3    7    7   10   11   14   18   20   21   21   22   22   22   22   22   22   22   22   20   20   20   19   19   18   19   19   19   19   21   21   21   21   23   23   23   23   23   23   23   23   23   23   22   22   19   21   18   18   16   16   16   19   14    4    2    0    0    3    0    9    4   11    2   10    8   12   16    7   16    7   20   19   22   26   24   25   26   28   29   34   34   32   36   31   30   31   26   28   30   31   36   35   35   35   37   32   32   26   26   22   22   21   22   22   25   20   24   18   21   21   21   22   21   21   20   20   19   19   18   13   12   10   12   10   10    5    8    8    2    0    0    0    0    3    0    3    9    0    6    5    3   12    3   11    5   14   16   19   17   20   15   18   18   18   21   19   19   18   19   12   20    8   17   17   20   23   19   16   18   16   19   18   26
   26    9   10    7    7    5    6    6    7    6    6    6    4    5    3    3    3    3    3    5    4    4    4    4    4    4    4    4    6    6    6    6    7    7    7    6    6    6    6    6    6    5    5    5    5    5    6    6    6    6    6    6    5    5    5    5    5    5    5    7    7    7    7    7    7    7    7    8   10   10    9   18   18   27   27   28   28   27   27   26   26   28   28   28   28   26   25   25   25   24   24   24   24   24   24   24   24   24   24   24   24   24   25   25   27   27   27   27   27   26   26   26   26   26   26   25   25   25   25   25   26   26   26   26   26   26   28   28   27   27   27   27   27   27   26   26   26   26   26   24   26   22   20   22   30   23   39   30   48   44   40   38   43   45   37   19    7   21   19   17    1    0    0    0    0    0    0    0    0    0    0    0    0    0    0    0    0    0    0    0    0    0    0    0    0    0    0    0    0    0    0    0    0    0    0    0    0    0    0    0    0    0   29   33   11    0   31   51   55   13    3   88  148  132   54   66   56   66   56    0   72   82   14   20   22   82   34   20    2    0    0   12    0   12    6    0    0    0    0    4    0    0   45    0   31   11    0    2    0   20   50    8    0   12   31
   36   46   50   54   64   58   62   56   56   54   62   64   50   68   68   68   64   66   67   67   65   65   67   67   67   67   67   67   67   69   68   66   66   66   66   66   69   69   71   70   70   70   70   70   70   70   70   70   70   70   70   70   70   72   72   72   72   72   71   71   71   71   71   71   71   70   68   68   68   68   68   70   70   70   70   68   66   66   72   74   73   71   71   69   73   73   74   74   74   76   76   76   75   77   77   77   77   77   77   77   77   75   75   75   75   75   74   74   74   74   74   74   74   74   74   74   78   80   76   74   74   74   74   74   74   74   74   74   74   76   76   76   75   74   73   74   74   74   74   74   74   74   74   73   75   72    4    0    3    1    2    2    2    4    6    8    8   10    9   11   12   17   20   21   22   22   22   22   22   22   22   22   22   22   20   20   20   19   19   19   19   19   19   19   21   21   21   21   23   23   23   23   23   23   23   23   23   23   22   22   21   16   15   14   15   14   13    8   11   12    6    0    0    0    0    4    3    5   11    1    8    8    6   14    5   10    5   16   23   27   25   30   24   27   30   28   36   34   34   34   34   28   38   26   35   33   34   37   32   29   34    0    0    0   22
   22   25   25   23   23   21   23   22   23   22   22   23   21   22   20   20   20   19   19   19   19   18   15    8    8    8    8    4    1    3    0    5    0    0    2    0    2    0    2    0    7    0    3   11    3    6    6    8   16   17   18   16   15   15   14   15   18   19   17   20   17   13   19    6   18   16   17   22   18   11   17   12   15   21   15   15   14   11   11    5   11    4   10    5    6    7    6    7    5    5    3    4    3    5    4    4    4    4    4    4    4    4    4    5    5    5    5    7    7    6    6    6    6    6    6    5    5    5    5    5    6    6    6    6    6    6    5    5    5    5    5    5    5    7    7    7    7    7    7    7    7    8   10   10    9   18   18   27   27   27   27   27   26   26   25   27   28   28   28   26   25   25   25   24   24   24   24   24   24   24   24   24   24   24   24   24   25   25   27   27   27   27   27   26   26   26   26   26   26   25   25   25   25   25   26   26   26   26   26   26   28   28   27   27   25   25   25   25   26   26   26   26   26   24   34   24   22   22   30   37   41   48   38   36   38   46   44   30   13   11   13   15    0    1   23    0    0    0    0    0    0    0    0    0    0    0    0    0    0    0    0    0    0    0    1
    1    0    0    0    0    0    0    0    0    0    0    0    0    0    0    0    0    0    0    0    0    0    0   25   67   37    0   19  103   93    0   56  106  110  134    8   77   95   67    4  104   67   29   41   11   81   86   18    0    0   14    4    0   16   26   12    0    0    0   16    0    0   47    0   47   10    0   24    0    8   90   28    0   18   18   32   36   32   50   46   70   28   64   58   62   62   44   54   60   64   62   66   65   65   67   67   67   67   67   67   69   69   67   67   67   67   66   66   66   66   69   69   71   70   70   70   70   70   70   70   70   70   70   70   70   70   70   72   72   72   72   72   71   71   71   71   71   71   71   70   68   68   68   68   68   70   70   70   70   70   68   68   72   76   75   73   73   71   73   73   74   74   74   76   76   76   75   77   77   77   77   77   77   77   77   75   75   75   75   75   75   74   74   74   74   74   74   74   74   74   78   80   76   74   74   74   74   74   74   74   74   74   74   76   76   76   76   74   74   74   74   74   74   73   74   73   74   73   73   72    0    1    2    3    2    2    3    7    9   10   10   12   12   11   15   15   21   22   21   22   21   22   22   22   22   22   22   22   20   20   20   19   20   19   18
   18   20   20   22   22   22   22   24   24   24   24   24   24   24   23   23   23   22   22   22   22   21   18   12   11   12   12    7    5    7    0    6    0    0    2    0    5    0    4    0   10    3    3   12    3    7    7   15   23   25   26   26   27   28   30   30   32   33   32   34   32   31   36   23   34   29   31   35   31   26   32   27   31   37   31   30   29   26   27   22   28   20   26   21   22   24   23   24   22   21   20   20   19   15   14   13   14   17   17    4    4    4    2    0    5    0    2    0    0    0    0    0    0    0    0    0    0    0    7    2    3    0    0    0    8   11   16   17   15   10   14   12   19   16   21    9   17    6   14   18   19   20   17   16    2   17   10   21   23   22   21   16   15   12   12   13   12   10    9    7    7    6    5    5    4    4    4    5    4    4    4    4    4    4    4    4    3    3    3    3    5    7    7    6    6    6    6    6    6    5    5    5    5    5    6    6    6    6    6    6    5    5    5    5    5    5    5    7    7    7    7    7    7    7    7    8   10   10    9   18   18   27   27   27   27   27   26   26   25   27   28   28   28   26   25   25   25   24   24   24   24   24   24   24   24   24   24   24   24   24   25   25   27   27   31
   31   27   26   26   26   26   26   26   25   25   25   25   25   26   26   26   26   26   26   28   28   27   27   25   25   25   25   26   26   26   26   26   28   44   30   24   24   38   57   41   44   36   40   41   33   24   24   24   17   11   13   15    0    0    0    0    0    0    0    0    0    0    0    0    0    0    0    0    0    0    0    0    0    0    0    0    0    0    0    0    0    0    0    0    0    0    0    0    0    0    0    0    0    0   19   21    0    0    0    0   95   87    0   19  140   64    0   56  150  126   39   55  145   84   68  106  128   96   72    0   60  126  104   58   60   24    0    0   10   28   50    4    0    0   15    0   51   15   43   30    0    0   26   46   22  106   14    0    0    0    2    4   36   40   28   24   30   42   50   50   52   54   62   64   60   60   61   65   71   71   67   67   67   67   69   69   67   66   66   67   67   67   67   67   69   69   71   70   70   70   70   70   70   70   70   70   70   70   70   70   70   72   72   72   72   72   71   71   71   71   71   71   71   70   68   68   68   68   68   70   70   70   70   70   70   70   74   76   75   73   73   71   73   73   74   74   74   76   76   76   75   77   77   77   77   77   77   77   77   75   75   75   75   75   52
   52   75   75   75   75   75   75   74   74   78   80   76   74   74   74   74   74   74   74   74   74   74   76   76   76   76   74   74   74   74   74   73   71   73   72   73   72   71   71    0    2    2    3    3    4    5    8    9   10   10   11   13   14   16   20   20   19   18   19   20   22   22   22   22   22   22   22   20   20   20   19   20   19   20   20   20   20   22   22   22   22   22   22   22   22   22   24   24   24   23   23   22   22   18   18   17   18   20   21    8    8    7    6    1    8    1    0    0    0    0    0    0    0    0    0    0    0    0   13    7   11    8    6    9   20   22   30   32   31   26   27   24   33   29   36   28   35   24   30   31   33   33   31   31   18   32   26   36   39   38   37   32   32   29   29   30   28   27   25   24   24   23   22   22   22   21   21   19   19   11    7    3    0    7    8    5    4    7    0    5    5    0    4    0    0    0    0    0    0    0    0    0    0    1    0    1    3    1   15   18   19   17   16   17   13   12   13   12   11   18    8   19   12   19   16   19   17   16   15    4   15   11   19   24   23   15   18   10   15   17   19   20   20   19   16   12    5    3    0    5    4    6    5    4    3    4    4    3   15   15   26    0    0    0   27
   27    5    4    4    4    3    4    3    5    5    5    5    5    6    6    6    6    6    6    5    5    5    5    5    5    5    7    7    7    7    7    7    7    7    7    6    6    7   16   16   27   27   27   27   27   26   26   26   26   26   26   26   26   25   25   25   25   24   24   24   23   24   24   24   24   24   24   24   24   25   25   27   27   27   27   25   24   24   24   24   26   26   26   26   26   26   26   26   26   26   26   26   26   26   25   25   25   25   26   26   26   24   26   26   28   30   26   50   46   28   48   48   47   33   38   36   32   22   12    8   22    5    0    1   15    0    0    0    0    0    0    1   10    0    0    0    0    0    0    0    0    0    0    0    0    0    0    0    0    0    0    0    0    0    0    0    0    0    0    0    0    0    0    0    0    0    0    0    0    0   43   79   59   43    5   13   73   79    0   63   91   21   37   67   85   65   37  112  126  124   86  106  146  100    0   84  140   40    0    0    0    2    4   14    4   26   38   14    3   39    0   39    0   20   28   26    0   12   50   24   74    6    0    0    0    0   52   26   24   12    2    0    2    4    8   28   60   74   58   66   57   57   67   73   67   67   69   71   71   71   69   67   67   67   46
   46   67   67   69   71   71   73   71   70   70   70   70   70   70   70   70   70   70   70   70   72   72   72   72   72   71   71   71   71   71   71   71   70   70   72   72   74   74   71   70   70   70   72   70   70   72   74   74   74   74   74   74   74   74   74   74   76   78   80   79   77   77   77   77   77   77   77   77   75   75   75   75   75   75   75   75   75   75   75   75   75   74   74   74   74   74   74   74   74   74   74   74   74   74   74   76   76   74   74   72   74   74   74   73   73   73   70   71   70   68   71   69   71    1    3    3    5    6    8    7   12   13   13   14   15   14   17   18   18   20   18   16   17   19   21   23   22   22   22   22   22   22   22   22   22   21   21   21   22   22   22   22   22   22   22   22   21   22   21   22   24   24   24   24   24   23   23   22   22   15   11    6    4   11   12    9    8   10    1    8    8    1    5    0    0    1    0    0    0    0    0    0    3   14    8   16   17   15   29   33   34   31   31   30   27   26   27   28   26   36   25   37   28   33   29   32   30   31   32   21   33   29   37   40   39   32   35   28   32   34   35   37   36   36   33   29   24   22   20   22   21   19   18   16   16   13    5    2    2    6   10    8    2    5   22
   22    1    1    0    0    0    0    4    0    0    0    0    0    0    0    0    4    0   18   14   14   14   11   13   10   13   10   12   12   11   11   11   19   10   22   13    9   14    1   10   12   15   23   24   22   23   19   23   22   23   23   23   22   21   19   12    9    4    2    3    4    4    5    4    4    3    3    3    3    4    4    4    4    4    4    4    4    4    3    3    3    3    5    5    5    5    5    5    5    5    5    5    5    5    5    5    5    5    5    5    7    7    7    7    7    7    7    7    6    6    6    6   15   16   27   27   27   27   29   28   28   28   26   26   26   26   26   26   25   25   25   24   24   23   23   23   23   23   23   24   24   24   24   24   24   26   26   26   26   24   24   24   24   24   26   26   26   26   26   26   26   26   26   26   25   25   25   25   25   25   25   26   25   25   25   23   25   25   27   27   23   29   43   44   46   38   37   25   28   26   18    6    0    0    0    0    0    0    0    0    0    0    0    0    0    0    0    0    0    0    0    0    0    0    0    0    0    0    0    0    0    0    0    0    0    0    0    0    0    0    0    0    0    0    0    0    0    0    0    0    0    0    1    0    0   10   36   84   76   28    6   22   62   83   22
   48   37   37   77  121   65   52   70   46   84  130  102  144  144    6  106  190    4   20    0   12   34   16   22   20   42   14   19   29   25   23   27   40    0   44    4   14   90   24   52   50    2    0    0    0   12    0    0    0    0    0    0    0    0    0   10   34   60   70   75   71   61   63   67   69   71   73   73   71   69   67   67   69   69   69   69   69   71   71   73   73   73   72   72   72   72   72   72   72   72   72   72   72   72   72   72   72   72   72   71   71   71   71   71   71   71   70   72   72   74   76   74   73   72   72   72   72   71   71   71   71   73   73   74   74   74   74   74   74   74   78   78   80   79   79   79   79   79   77   77   77   77   75   75   75   75   75   75   75   75   75   75   75   75   75   74   74   74   74   74   74   74   74   74   74   76   76   76   76   74   74   76   74   74   76   76   76   76   76   76   75   74   71   69   70   71   73    3    5    6    8   10   11   13   15   17   17   17   17   17   17   16   17   17   18   18   19   21   22   22   22   22   22   22   22   22   22   21   22   21   22   22   22   22   22   22   22   22   22   22   21   22   21   22   24   24   24   24   24   23   23   21   21   19   18   15    7    5    5    8   12   10    6    9   20
   20    3    2    0    1    0    5   12    8    7    8    0    0   10    0    4   20    6   33   29   28   30   23   27   22   27   25   27   30   29   29   27   33   25   36   28   25   32   18   27   29   31   38   39   37   39   36   40   39   39   40   38   39   37   35   32   28   24   20   19   19   16   17   17   15   11    5    1    0    5    8   12    5    9    0    3    4    1    1    0    0    0   11    0    0    0    0    0    0    0    0    1    0   14   14   10   11    9   10    5   11    8    2   15    0   17    2   17    8   18   12   12    9    9   10   17   16   20   23   20   22   23   23   23   24   22   19   20   18   15   17   14   11    8    5    4    5    4    3    3    3    3    3    4    4    4    4    4    4    4    4    4    3    3    3    3    5    5    5    5    5    5    5    5    5    5    5    5    5    5    5    5    5    5    5    5    5    5    5    7    7    7    7    7    6    6   15   16   27   27   27   27   29   28   28   28   26   26   26   26   26   26   25   25   25   24   24   24   24   23   23   23   23   24   24   24   24   24   24   24   24   24   24   24   24   24   24   24   26   26   26   26   26   26   26   26   26   26   25   25   25   25   26   26   26   25   25   25   25   25   25   25   23   23   30
   30   40   40   33   32   30   23   18   15   10    5    2    1   23   19    1    5    0    2    3    2    6    2   10    9    5    3    0    2    0    1    1    1    1    1    1    1    2    2    5    5    4    4    3    2    2    1    1    1    1    5    2    3    3    3    3    2    1    1    2    3    5   16   11    7   16   34   48   49   47   18    9   17   51   29   38   38   25   39   50   71   26   56   14   65   81   64   72   70   34   76   91   11   11   27   25   25   22   33   32   40   17   20   67   12   43   22   56   19   17   12   40   36   23   27   37    5    5   23    8    3    9    9    3    4    6   11   21   15   13   10   13   27   44   48   42   44   46   47   48   49   49   48   47   46   46   47   47   47   47   47   48   48   49   49   49   49   49   49   49   49   49   49   49   49   49   49   49   49   49   49   49   49   49   49   49   49   49   49   49   49   49   49   50   51   51   50   50   50   50   50   50   50   50   50   50   50   50   50   51   51   51   51   52   53   52   52   52   54   54   54   54   53   53   53   53   52   52   52   52   52   52   52   52   52   52   52   52   52   52   52   52   52   52   52   52   52   52   52   53   53   53   53   51   51   52   54   54   53   53   53   53   53   53   53
